<svg xmlns="http://www.w3.org/2000/svg" viewBox="0 0 1600 900" role="img" aria-labelledby="title desc">
  <title id="title">Placeholder hero tableros de distribucion</title>
  <desc id="desc">Placeholder visual con estilo corporativo para articulo sobre tableros de distribucion electrica.</desc>
  <defs>
    <linearGradient id="bg" x1="0" x2="1" y1="0" y2="1">
      <stop offset="0%" stop-color="#0b1f3a"/>
      <stop offset="55%" stop-color="#12365f"/>
      <stop offset="100%" stop-color="#0f4c81"/>
    </linearGradient>
    <linearGradient id="panel" x1="0" x2="1">
      <stop offset="0%" stop-color="#f8fbff" stop-opacity="0.96"/>
      <stop offset="100%" stop-color="#d8e8f7" stop-opacity="0.9"/>
    </linearGradient>
  </defs>
  <rect width="1600" height="900" fill="url(#bg)"/>
  <circle cx="1310" cy="160" r="220" fill="#4aa3ff" opacity="0.14"/>
  <circle cx="240" cy="780" r="180" fill="#8cc8ff" opacity="0.12"/>
  <rect x="90" y="90" width="1420" height="720" rx="30" fill="none" stroke="#8fc7ff" stroke-opacity="0.24" stroke-width="2"/>
  <g transform="translate(120 150)">
    <text x="0" y="0" fill="#d7e9fb" font-family="Arial, sans-serif" font-size="28" font-weight="700" letter-spacing="4">PLACEHOLDER HERO</text>
    <text x="0" y="74" fill="#ffffff" font-family="Arial, sans-serif" font-size="66" font-weight="700">Tableros de Distribucion</text>
    <text x="0" y="146" fill="#d7e9fb" font-family="Arial, sans-serif" font-size="34">Seguridad, continuidad operativa y seleccion industrial</text>
    <rect x="0" y="204" width="540" height="6" rx="3" fill="#4aa3ff"/>
  </g>
  <g transform="translate(920 190)">
    <rect x="0" y="0" width="420" height="500" rx="28" fill="#0a1830" stroke="#75b4ee" stroke-width="3"/>
    <rect x="32" y="34" width="356" height="90" rx="16" fill="#16395d"/>
    <rect x="56" y="58" width="110" height="16" rx="8" fill="#7ec3ff"/>
    <rect x="56" y="84" width="190" height="12" rx="6" fill="#b9daf7" opacity="0.9"/>
    <g fill="url(#panel)">
      <rect x="38" y="156" width="154" height="124" rx="18"/>
      <rect x="228" y="156" width="154" height="124" rx="18"/>
      <rect x="38" y="310" width="154" height="124" rx="18"/>
      <rect x="228" y="310" width="154" height="124" rx="18"/>
    </g>
    <g fill="#0f4c81">
      <rect x="70" y="188" width="90" height="12" rx="6"/>
      <rect x="260" y="188" width="90" height="12" rx="6"/>
      <rect x="70" y="342" width="90" height="12" rx="6"/>
      <rect x="260" y="342" width="90" height="12" rx="6"/>
    </g>
    <g stroke="#4aa3ff" stroke-width="6" stroke-linecap="round" opacity="0.8">
      <path d="M210 124 L210 470"/>
      <path d="M194 230 L226 230"/>
      <path d="M194 386 L226 386"/>
    </g>
  </g>
  <g transform="translate(120 470)">
    <rect width="620" height="190" rx="24" fill="#f4f9ff" fill-opacity="0.94"/>
    <text x="36" y="60" fill="#12365f" font-family="Arial, sans-serif" font-size="28" font-weight="700">Uso sugerido</text>
    <text x="36" y="104" fill="#314a67" font-family="Arial, sans-serif" font-size="28">Imagen principal del articulo y tarjeta social.</text>
    <text x="36" y="144" fill="#314a67" font-family="Arial, sans-serif" font-size="28">Formato recomendado: 1600 x 900 px.</text>
  </g>
</svg>
